<svg width="390" height="384" viewBox="0 0 390 384" fill="none" xmlns="http://www.w3.org/2000/svg">
<path d="M121.449 43.5032C141.507 61.9371 274.754 59.0078 292.673 59.0078C304.619 59.0078 323.764 59.0078 356.882 59.0078C390 59.0078 390 78.0078 390 95.5078C390 113.008 390 97.5078 390 115.508C390 133.508 389.5 226.508 389.5 226.508V382.508C389.5 382.508 343.112 334.812 302.5 326.508C254.133 316.618 203.079 326.508 154.3 326.508C109.321 326.508 86.6177 319.295 50.7698 292.004C15.0155 264.784 0 193.004 0 193.004V0.507812C6.57912 0.600242 76.8842 2.54592 121.449 43.5032Z" fill="#C5161D" stroke="#C5161D"/>
<path d="M84.0806 83.5078V111.508H74.6406V90.6278H69.8406V83.5078H84.0806ZM32.1859 143.908C29.7059 143.908 27.4793 143.428 25.5059 142.468C23.5593 141.508 22.0259 140.161 20.9059 138.428C19.8126 136.694 19.2659 134.734 19.2659 132.548C19.2659 130.361 19.8126 128.414 20.9059 126.708C22.0259 124.974 23.5593 123.628 25.5059 122.668C27.4793 121.708 29.7059 121.228 32.1859 121.228C34.8526 121.228 37.1326 121.801 39.0259 122.948C40.9193 124.094 42.2259 125.681 42.9459 127.708L35.9459 131.148C35.0926 129.228 33.8259 128.268 32.1459 128.268C31.0793 128.268 30.1859 128.641 29.4659 129.388C28.7726 130.134 28.4259 131.188 28.4259 132.548C28.4259 133.934 28.7726 135.001 29.4659 135.748C30.1859 136.494 31.0793 136.868 32.1459 136.868C33.8259 136.868 35.0926 135.908 35.9459 133.988L42.9459 137.428C42.2259 139.454 40.9193 141.041 39.0259 142.188C37.1326 143.334 34.8526 143.908 32.1859 143.908ZM45.4325 121.628H54.4725V143.508H45.4325V121.628ZM49.9525 119.868C48.3258 119.868 47.0058 119.441 45.9925 118.588C45.0058 117.708 44.5125 116.601 44.5125 115.268C44.5125 113.934 45.0058 112.841 45.9925 111.988C47.0058 111.108 48.3258 110.668 49.9525 110.668C51.6058 110.668 52.9258 111.081 53.9125 111.908C54.8992 112.734 55.3925 113.801 55.3925 115.108C55.3925 116.494 54.8992 117.641 53.9125 118.548C52.9258 119.428 51.6058 119.868 49.9525 119.868ZM80.9538 121.628V143.508H71.9538V136.108C70.6738 136.854 68.9938 137.228 66.9138 137.228C63.7404 137.228 61.3804 136.521 59.8338 135.108C58.2871 133.668 57.5138 131.401 57.5138 128.308V121.628H66.5138V127.708C66.5138 128.801 66.7138 129.561 67.1138 129.988C67.5404 130.414 68.1938 130.628 69.0738 130.628C70.1404 130.628 71.1004 130.428 71.9538 130.028V121.628H80.9538ZM85.1981 121.628H94.1981V129.308H100.358V121.628H109.358V143.508H100.358V136.388H94.1981V143.508H85.1981V121.628ZM135.277 121.628V143.508H127.277V137.948H125.077L121.517 143.508H111.957L116.677 136.668C115.29 136.001 114.223 135.108 113.477 133.988C112.757 132.868 112.397 131.561 112.397 130.068C112.397 127.428 113.41 125.361 115.437 123.868C117.463 122.374 120.237 121.628 123.757 121.628H135.277ZM123.957 128.628C122.41 128.628 121.637 129.214 121.637 130.388C121.637 131.054 121.823 131.548 122.197 131.868C122.597 132.161 123.183 132.308 123.957 132.308H127.277V128.628H123.957Z" fill="white"/>
<path d="M161.374 104.848V111.248H157.054V108.508H149.094V111.248H144.774V104.848H145.174C145.987 104.848 146.56 104.334 146.894 103.308C147.227 102.281 147.44 100.768 147.534 98.7678L147.694 94.5078H159.534V104.848H161.374ZM151.634 99.1678C151.58 100.514 151.474 101.661 151.314 102.608C151.154 103.541 150.907 104.288 150.574 104.848H154.894V98.1678H151.674L151.634 99.1678ZM174.279 103.028C174.279 103.094 174.259 103.448 174.219 104.088H166.619C166.779 104.501 167.045 104.821 167.419 105.048C167.792 105.261 168.259 105.368 168.819 105.368C169.299 105.368 169.699 105.308 170.019 105.188C170.352 105.068 170.712 104.861 171.099 104.568L173.459 106.948C172.392 108.121 170.799 108.708 168.679 108.708C167.359 108.708 166.199 108.468 165.199 107.988C164.199 107.494 163.425 106.814 162.879 105.948C162.332 105.081 162.059 104.108 162.059 103.028C162.059 101.934 162.325 100.961 162.859 100.108C163.405 99.2411 164.145 98.5678 165.079 98.0878C166.025 97.6078 167.085 97.3678 168.259 97.3678C169.365 97.3678 170.372 97.5878 171.279 98.0278C172.199 98.4678 172.925 99.1145 173.459 99.9678C174.005 100.821 174.279 101.841 174.279 103.028ZM168.299 100.448C167.832 100.448 167.445 100.574 167.139 100.828C166.832 101.081 166.632 101.441 166.539 101.908H170.059C169.965 101.454 169.765 101.101 169.459 100.848C169.152 100.581 168.765 100.448 168.299 100.448ZM175.904 97.5678H180.404V101.408H183.484V97.5678H187.984V108.508H183.484V104.948H180.404V108.508H175.904V97.5678ZM197.023 100.868C198.49 100.868 199.616 101.188 200.403 101.828C201.19 102.468 201.583 103.374 201.583 104.548C201.583 105.774 201.123 106.741 200.203 107.448C199.296 108.154 198.05 108.508 196.463 108.508H190.103V97.5678H194.603V100.868H197.023ZM196.003 105.468C196.656 105.468 196.983 105.134 196.983 104.468C196.983 103.828 196.656 103.508 196.003 103.508H194.603V105.468H196.003ZM208.873 97.5678H213.373V101.408H216.453V97.5678H220.953V108.508H216.453V104.948H213.373V108.508H208.873V97.5678ZM227.732 97.3678C229.652 97.3678 231.118 97.8011 232.132 98.6678C233.145 99.5211 233.652 100.841 233.652 102.628V108.508H229.452V107.068C228.932 108.161 227.898 108.708 226.352 108.708C225.485 108.708 224.745 108.561 224.132 108.268C223.532 107.961 223.072 107.554 222.752 107.048C222.445 106.528 222.292 105.948 222.292 105.308C222.292 104.228 222.705 103.408 223.532 102.848C224.358 102.288 225.612 102.008 227.292 102.008H229.112C228.965 101.154 228.278 100.728 227.052 100.728C226.558 100.728 226.058 100.808 225.552 100.968C225.045 101.114 224.612 101.321 224.252 101.588L222.812 98.6078C223.438 98.2211 224.192 97.9211 225.072 97.7078C225.965 97.4811 226.852 97.3678 227.732 97.3678ZM227.712 105.988C228.032 105.988 228.318 105.901 228.572 105.728C228.825 105.554 229.012 105.294 229.132 104.948V104.188H228.012C227.092 104.188 226.632 104.494 226.632 105.108C226.632 105.361 226.725 105.574 226.912 105.748C227.112 105.908 227.378 105.988 227.712 105.988ZM242.794 97.3678C243.754 97.3678 244.634 97.6011 245.434 98.0678C246.247 98.5211 246.887 99.1811 247.354 100.048C247.834 100.914 248.074 101.914 248.074 103.048C248.074 104.181 247.834 105.181 247.354 106.048C246.887 106.901 246.247 107.561 245.434 108.028C244.634 108.481 243.754 108.708 242.794 108.708C241.58 108.708 240.654 108.394 240.014 107.768V112.388H235.494V97.5678H239.794V98.4678C240.447 97.7345 241.447 97.3678 242.794 97.3678ZM241.714 105.188C242.234 105.188 242.66 105.001 242.994 104.628C243.327 104.254 243.494 103.728 243.494 103.048C243.494 102.368 243.327 101.841 242.994 101.468C242.66 101.081 242.234 100.888 241.714 100.888C241.194 100.888 240.767 101.081 240.434 101.468C240.1 101.841 239.934 102.368 239.934 103.048C239.934 103.728 240.1 104.254 240.434 104.628C240.767 105.001 241.194 105.188 241.714 105.188ZM255.177 108.708C253.963 108.708 252.87 108.468 251.897 107.988C250.937 107.494 250.183 106.821 249.637 105.968C249.09 105.101 248.817 104.121 248.817 103.028C248.817 101.934 249.09 100.961 249.637 100.108C250.183 99.2411 250.937 98.5678 251.897 98.0878C252.87 97.6078 253.963 97.3678 255.177 97.3678C256.403 97.3678 257.497 97.6078 258.457 98.0878C259.43 98.5678 260.183 99.2411 260.717 100.108C261.263 100.961 261.537 101.934 261.537 103.028C261.537 104.121 261.263 105.101 260.717 105.968C260.183 106.821 259.43 107.494 258.457 107.988C257.497 108.468 256.403 108.708 255.177 108.708ZM255.177 105.188C255.697 105.188 256.123 105.001 256.457 104.628C256.79 104.241 256.957 103.708 256.957 103.028C256.957 102.348 256.79 101.821 256.457 101.448C256.123 101.074 255.697 100.888 255.177 100.888C254.657 100.888 254.23 101.074 253.897 101.448C253.563 101.821 253.397 102.348 253.397 103.028C253.397 103.708 253.563 104.241 253.897 104.628C254.23 105.001 254.657 105.188 255.177 105.188ZM276.301 104.968V110.668H272.121V108.508H266.081V110.668H261.901V104.968H262.221C262.861 104.968 263.307 104.668 263.561 104.068C263.814 103.454 263.961 102.574 264.001 101.428L264.141 97.5678H274.841V104.968H276.301ZM268.061 101.768C268.034 102.608 267.974 103.274 267.881 103.768C267.801 104.248 267.634 104.648 267.381 104.968H270.341V101.088H268.081L268.061 101.768ZM289.383 104.868H288.703V108.508H284.243V104.868H283.523L281.863 108.508H276.542L279.683 102.868L276.763 97.5678H281.523L283.423 101.408H284.243V97.5678H288.703V101.408H289.483L291.403 97.5678H296.163L293.243 102.868L296.383 108.508H291.043L289.383 104.868ZM308.634 103.028C308.634 103.094 308.614 103.448 308.574 104.088H300.974C301.134 104.501 301.401 104.821 301.774 105.048C302.148 105.261 302.614 105.368 303.174 105.368C303.654 105.368 304.054 105.308 304.374 105.188C304.708 105.068 305.068 104.861 305.454 104.568L307.814 106.948C306.748 108.121 305.154 108.708 303.034 108.708C301.714 108.708 300.554 108.468 299.554 107.988C298.554 107.494 297.781 106.814 297.234 105.948C296.688 105.081 296.414 104.108 296.414 103.028C296.414 101.934 296.681 100.961 297.214 100.108C297.761 99.2411 298.501 98.5678 299.434 98.0878C300.381 97.6078 301.441 97.3678 302.614 97.3678C303.721 97.3678 304.728 97.5878 305.634 98.0278C306.554 98.4678 307.281 99.1145 307.814 99.9678C308.361 100.821 308.634 101.841 308.634 103.028ZM302.654 100.448C302.188 100.448 301.801 100.574 301.494 100.828C301.188 101.081 300.988 101.441 300.894 101.908H304.414C304.321 101.454 304.121 101.101 303.814 100.848C303.508 100.581 303.121 100.448 302.654 100.448ZM310.259 97.5678H314.759V101.408H317.839V97.5678H322.339V108.508H317.839V104.948H314.759V108.508H310.259V97.5678ZM324.458 97.5678H328.958V101.408H332.038V97.5678H336.538V108.508H332.038V104.948H328.958V108.508H324.458V97.5678ZM349.498 97.5678V108.508H345.498V105.728H344.398L342.618 108.508H337.838L340.198 105.088C339.504 104.754 338.971 104.308 338.598 103.748C338.238 103.188 338.058 102.534 338.058 101.788C338.058 100.468 338.564 99.4345 339.578 98.6878C340.591 97.9411 341.978 97.5678 343.738 97.5678H349.498ZM343.838 101.068C343.064 101.068 342.678 101.361 342.678 101.948C342.678 102.281 342.771 102.528 342.958 102.688C343.158 102.834 343.451 102.908 343.838 102.908H345.498V101.068H343.838ZM157.821 132.828C156.341 132.828 155.008 132.521 153.821 131.908C152.634 131.281 151.701 130.414 151.021 129.308C150.354 128.188 150.021 126.921 150.021 125.508C150.021 124.094 150.354 122.834 151.021 121.728C151.701 120.608 152.634 119.741 153.821 119.128C155.008 118.501 156.341 118.188 157.821 118.188C159.181 118.188 160.394 118.428 161.461 118.908C162.528 119.388 163.408 120.081 164.101 120.988L161.121 123.648C160.254 122.554 159.234 122.008 158.061 122.008C157.074 122.008 156.281 122.328 155.681 122.968C155.081 123.594 154.781 124.441 154.781 125.508C154.781 126.574 155.081 127.428 155.681 128.068C156.281 128.694 157.074 129.008 158.061 129.008C159.234 129.008 160.254 128.461 161.121 127.368L164.101 130.028C163.408 130.934 162.528 131.628 161.461 132.108C160.394 132.588 159.181 132.828 157.821 132.828ZM175.414 125.088H172.074V132.508H167.574V125.088H164.234V121.568H175.414V125.088ZM187.824 127.028C187.824 127.094 187.804 127.448 187.764 128.088H180.164C180.324 128.501 180.59 128.821 180.964 129.048C181.337 129.261 181.804 129.368 182.364 129.368C182.844 129.368 183.244 129.308 183.564 129.188C183.897 129.068 184.257 128.861 184.644 128.568L187.004 130.948C185.937 132.121 184.344 132.708 182.224 132.708C180.904 132.708 179.744 132.468 178.744 131.988C177.744 131.494 176.97 130.814 176.424 129.948C175.877 129.081 175.604 128.108 175.604 127.028C175.604 125.934 175.87 124.961 176.404 124.108C176.95 123.241 177.69 122.568 178.624 122.088C179.57 121.608 180.63 121.368 181.804 121.368C182.91 121.368 183.917 121.588 184.824 122.028C185.744 122.468 186.47 123.114 187.004 123.968C187.55 124.821 187.824 125.841 187.824 127.028ZM181.844 124.448C181.377 124.448 180.99 124.574 180.684 124.828C180.377 125.081 180.177 125.441 180.084 125.908H183.604C183.51 125.454 183.31 125.101 183.004 124.848C182.697 124.581 182.31 124.448 181.844 124.448ZM201.189 121.568V132.508H196.689V125.088H193.949V132.508H189.449V121.568H201.189ZM207.976 121.368C209.896 121.368 211.363 121.801 212.376 122.668C213.389 123.521 213.896 124.841 213.896 126.628V132.508H209.696V131.068C209.176 132.161 208.143 132.708 206.596 132.708C205.729 132.708 204.989 132.561 204.376 132.268C203.776 131.961 203.316 131.554 202.996 131.048C202.689 130.528 202.536 129.948 202.536 129.308C202.536 128.228 202.949 127.408 203.776 126.848C204.603 126.288 205.856 126.008 207.536 126.008H209.356C209.209 125.154 208.523 124.728 207.296 124.728C206.803 124.728 206.303 124.808 205.796 124.968C205.289 125.114 204.856 125.321 204.496 125.588L203.056 122.608C203.683 122.221 204.436 121.921 205.316 121.708C206.209 121.481 207.096 121.368 207.976 121.368ZM207.956 129.988C208.276 129.988 208.563 129.901 208.816 129.728C209.069 129.554 209.256 129.294 209.376 128.948V128.188H208.256C207.336 128.188 206.876 128.494 206.876 129.108C206.876 129.361 206.969 129.574 207.156 129.748C207.356 129.908 207.623 129.988 207.956 129.988ZM215.738 121.568H220.238V125.408H223.318V121.568H227.818V132.508H223.318V128.948H220.238V132.508H215.738V121.568ZM234.597 121.368C236.517 121.368 237.984 121.801 238.997 122.668C240.01 123.521 240.517 124.841 240.517 126.628V132.508H236.317V131.068C235.797 132.161 234.764 132.708 233.217 132.708C232.35 132.708 231.61 132.561 230.997 132.268C230.397 131.961 229.937 131.554 229.617 131.048C229.31 130.528 229.157 129.948 229.157 129.308C229.157 128.228 229.57 127.408 230.397 126.848C231.224 126.288 232.477 126.008 234.157 126.008H235.977C235.83 125.154 235.144 124.728 233.917 124.728C233.424 124.728 232.924 124.808 232.417 124.968C231.91 125.114 231.477 125.321 231.117 125.588L229.677 122.608C230.304 122.221 231.057 121.921 231.937 121.708C232.83 121.481 233.717 121.368 234.597 121.368ZM234.577 129.988C234.897 129.988 235.184 129.901 235.437 129.728C235.69 129.554 235.877 129.294 235.997 128.948V128.188H234.877C233.957 128.188 233.497 128.494 233.497 129.108C233.497 129.361 233.59 129.574 233.777 129.748C233.977 129.908 234.244 129.988 234.577 129.988ZM248.535 118.508H260.675V122.068H253.175V123.688H256.515C258.222 123.688 259.528 124.054 260.435 124.788C261.355 125.508 261.815 126.554 261.815 127.928C261.815 129.354 261.295 130.474 260.255 131.288C259.215 132.101 257.768 132.508 255.915 132.508H248.535V118.508ZM255.595 129.208C256.062 129.208 256.422 129.108 256.675 128.908C256.942 128.708 257.075 128.421 257.075 128.048C257.075 127.328 256.582 126.968 255.595 126.968H253.175V129.208H255.595ZM267.917 121.368C269.837 121.368 271.304 121.801 272.317 122.668C273.331 123.521 273.837 124.841 273.837 126.628V132.508H269.637V131.068C269.117 132.161 268.084 132.708 266.537 132.708C265.671 132.708 264.931 132.561 264.317 132.268C263.717 131.961 263.257 131.554 262.937 131.048C262.631 130.528 262.477 129.948 262.477 129.308C262.477 128.228 262.891 127.408 263.717 126.848C264.544 126.288 265.797 126.008 267.477 126.008H269.297C269.151 125.154 268.464 124.728 267.237 124.728C266.744 124.728 266.244 124.808 265.737 124.968C265.231 125.114 264.797 125.321 264.437 125.588L262.997 122.608C263.624 122.221 264.377 121.921 265.257 121.708C266.151 121.481 267.037 121.368 267.917 121.368ZM267.897 129.988C268.217 129.988 268.504 129.901 268.757 129.728C269.011 129.554 269.197 129.294 269.317 128.948V128.188H268.197C267.277 128.188 266.817 128.494 266.817 129.108C266.817 129.361 266.911 129.574 267.097 129.748C267.297 129.908 267.564 129.988 267.897 129.988ZM275.679 121.568H280.179V125.408H283.259V121.568H287.759V132.508H283.259V128.948H280.179V132.508H275.679V121.568ZM303.478 128.968V134.668H299.298V132.508H293.258V134.668H289.078V128.968H289.398C290.038 128.968 290.485 128.668 290.738 128.068C290.992 127.454 291.138 126.574 291.178 125.428L291.318 121.568H302.018V128.968H303.478ZM295.238 125.768C295.212 126.608 295.152 127.274 295.058 127.768C294.978 128.248 294.812 128.648 294.558 128.968H297.518V125.088H295.258L295.238 125.768ZM316.3 127.028C316.3 127.094 316.28 127.448 316.24 128.088H308.64C308.8 128.501 309.067 128.821 309.44 129.048C309.814 129.261 310.28 129.368 310.84 129.368C311.32 129.368 311.72 129.308 312.04 129.188C312.374 129.068 312.734 128.861 313.12 128.568L315.48 130.948C314.414 132.121 312.82 132.708 310.7 132.708C309.38 132.708 308.22 132.468 307.22 131.988C306.22 131.494 305.447 130.814 304.9 129.948C304.354 129.081 304.08 128.108 304.08 127.028C304.08 125.934 304.347 124.961 304.88 124.108C305.427 123.241 306.167 122.568 307.1 122.088C308.047 121.608 309.107 121.368 310.28 121.368C311.387 121.368 312.394 121.588 313.3 122.028C314.22 122.468 314.947 123.114 315.48 123.968C316.027 124.821 316.3 125.841 316.3 127.028ZM310.32 124.448C309.854 124.448 309.467 124.574 309.16 124.828C308.854 125.081 308.654 125.441 308.56 125.908H312.08C311.987 125.454 311.787 125.101 311.48 124.848C311.174 124.581 310.787 124.448 310.32 124.448ZM325.225 121.368C326.185 121.368 327.065 121.601 327.865 122.068C328.679 122.521 329.319 123.181 329.785 124.048C330.265 124.914 330.505 125.914 330.505 127.048C330.505 128.181 330.265 129.181 329.785 130.048C329.319 130.901 328.679 131.561 327.865 132.028C327.065 132.481 326.185 132.708 325.225 132.708C324.012 132.708 323.085 132.394 322.445 131.768V136.388H317.925V121.568H322.225V122.468C322.879 121.734 323.879 121.368 325.225 121.368ZM324.145 129.188C324.665 129.188 325.092 129.001 325.425 128.628C325.759 128.254 325.925 127.728 325.925 127.048C325.925 126.368 325.759 125.841 325.425 125.468C325.092 125.081 324.665 124.888 324.145 124.888C323.625 124.888 323.199 125.081 322.865 125.468C322.532 125.841 322.365 126.368 322.365 127.048C322.365 127.728 322.532 128.254 322.865 128.628C323.199 129.001 323.625 129.188 324.145 129.188ZM331.968 121.568H336.468V126.508L340.248 121.568H344.408V132.508H339.908V127.548L336.148 132.508H331.968V121.568Z" fill="white"/>
</svg>
