<svg width="390" height="148" viewBox="0 0 390 148" fill="none" xmlns="http://www.w3.org/2000/svg">
<path d="M0 0H390C390 0 389.5 51 382 79C374.5 107 369 117 347.5 121C295.861 130.607 303.949 99.1739 251.5 102C195.388 105.023 217.968 127.328 163 139C135.341 144.873 0 147.5 0 147.5V0Z" fill="#C5161D"/>
<path d="M36.86 45H55.07V50.34H43.82V52.77H48.83C51.39 52.77 53.35 53.32 54.71 54.42C56.09 55.5 56.78 57.07 56.78 59.13C56.78 61.27 56 62.95 54.44 64.17C52.88 65.39 50.71 66 47.93 66H36.86V45ZM47.45 61.05C48.15 61.05 48.69 60.9 49.07 60.6C49.47 60.3 49.67 59.87 49.67 59.31C49.67 58.23 48.93 57.69 47.45 57.69H43.82V61.05H47.45ZM73.7405 62.34H65.7605L64.3505 66H57.1505L66.3305 45H73.2905L82.4705 66H75.1505L73.7405 62.34ZM71.7905 57.24L69.7505 51.96L67.7105 57.24H71.7905ZM105.109 45V66H98.0288V58.26H91.4888V66H84.4088V45H91.4888V52.44H98.0288V45H105.109ZM132.392 60.51V70.11H125.912V66H113.972V70.11H107.492V60.51H108.092C109.312 60.51 110.172 59.74 110.672 58.2C111.172 56.66 111.492 54.39 111.632 51.39L111.872 45H129.632V60.51H132.392ZM117.782 51.99C117.702 54.01 117.542 55.73 117.302 57.15C117.062 58.55 116.692 59.67 116.192 60.51H122.672V50.49H117.842L117.782 51.99ZM152.23 60.66V66H134.77V45H151.84V50.34H141.73V52.8H150.61V57.9H141.73V60.66H152.23ZM165.212 45C167.152 45 168.842 45.32 170.282 45.96C171.722 46.6 172.832 47.52 173.612 48.72C174.392 49.92 174.782 51.32 174.782 52.92C174.782 54.52 174.392 55.92 173.612 57.12C172.832 58.32 171.722 59.24 170.282 59.88C168.842 60.52 167.152 60.84 165.212 60.84H162.182V66H155.102V45H165.212ZM164.762 55.38C165.722 55.38 166.442 55.17 166.922 54.75C167.402 54.31 167.642 53.7 167.642 52.92C167.642 52.14 167.402 51.54 166.922 51.12C166.442 50.68 165.722 50.46 164.762 50.46H162.182V55.38H164.762ZM176.928 45H183.888V66H176.928V45ZM203.762 54.99C204.942 55.41 205.842 56.04 206.462 56.88C207.082 57.7 207.392 58.71 207.392 59.91C207.392 61.79 206.642 63.28 205.142 64.38C203.662 65.46 201.562 66 198.842 66H187.622V45H198.272C200.872 45 202.882 45.48 204.302 46.44C205.742 47.4 206.462 48.75 206.462 50.49C206.462 51.49 206.222 52.37 205.742 53.13C205.282 53.89 204.622 54.51 203.762 54.99ZM194.582 53.07H197.582C198.742 53.07 199.322 52.56 199.322 51.54C199.322 50.48 198.742 49.95 197.582 49.95H194.582V53.07ZM198.512 61.05C199.672 61.05 200.252 60.49 200.252 59.37C200.252 58.29 199.672 57.75 198.512 57.75H194.582V61.05H198.512ZM220.477 66.48C218.257 66.48 216.257 66.02 214.477 65.1C212.697 64.16 211.297 62.86 210.277 61.2C209.277 59.52 208.777 57.62 208.777 55.5C208.777 53.38 209.277 51.49 210.277 49.83C211.297 48.15 212.697 46.85 214.477 45.93C216.257 44.99 218.257 44.52 220.477 44.52C222.517 44.52 224.337 44.88 225.937 45.6C227.537 46.32 228.857 47.36 229.897 48.72L225.427 52.71C224.127 51.07 222.597 50.25 220.837 50.25C219.357 50.25 218.167 50.73 217.267 51.69C216.367 52.63 215.917 53.9 215.917 55.5C215.917 57.1 216.367 58.38 217.267 59.34C218.167 60.28 219.357 60.75 220.837 60.75C222.597 60.75 224.127 59.93 225.427 58.29L229.897 62.28C228.857 63.64 227.537 64.68 225.937 65.4C224.337 66.12 222.517 66.48 220.477 66.48ZM243.346 51.45C245.966 51.45 247.986 52.04 249.406 53.22C250.826 54.38 251.536 56.1 251.536 58.38C251.536 60.84 250.726 62.73 249.106 64.05C247.486 65.35 245.266 66 242.446 66H232.036V45H238.996V51.45H243.346ZM241.966 61.05C242.686 61.05 243.276 60.83 243.736 60.39C244.196 59.93 244.426 59.3 244.426 58.5C244.426 57.1 243.606 56.4 241.966 56.4H238.996V61.05H241.966ZM268.649 55.2L274.859 66H266.879L262.859 58.41H260.879V66H253.799V45H260.879V52.83H263.039L267.509 45H274.889L268.649 55.2ZM290.537 62.34H282.557L281.147 66H273.947L283.127 45H290.087L299.267 66H291.947L290.537 62.34ZM288.587 57.24L286.547 51.96L284.507 57.24H288.587ZM51.53 92.2L57.74 103H49.76L45.74 95.41H43.76V103H36.68V82H43.76V89.83H45.92L50.39 82H57.77L51.53 92.2ZM69.7177 103.48C67.4577 103.48 65.4277 103.01 63.6277 102.07C61.8277 101.13 60.4177 99.83 59.3977 98.17C58.3777 96.49 57.8677 94.6 57.8677 92.5C57.8677 90.4 58.3777 88.52 59.3977 86.86C60.4177 85.18 61.8277 83.87 63.6277 82.93C65.4277 81.99 67.4577 81.52 69.7177 81.52C71.9777 81.52 74.0077 81.99 75.8077 82.93C77.6077 83.87 79.0177 85.18 80.0377 86.86C81.0577 88.52 81.5677 90.4 81.5677 92.5C81.5677 94.6 81.0577 96.49 80.0377 98.17C79.0177 99.83 77.6077 101.13 75.8077 102.07C74.0077 103.01 71.9777 103.48 69.7177 103.48ZM69.7177 97.75C70.5977 97.75 71.3877 97.54 72.0877 97.12C72.8077 96.68 73.3777 96.07 73.7977 95.29C74.2177 94.49 74.4277 93.56 74.4277 92.5C74.4277 91.44 74.2177 90.52 73.7977 89.74C73.3777 88.94 72.8077 88.33 72.0877 87.91C71.3877 87.47 70.5977 87.25 69.7177 87.25C68.8377 87.25 68.0377 87.47 67.3177 87.91C66.6177 88.33 66.0577 88.94 65.6377 89.74C65.2177 90.52 65.0077 91.44 65.0077 92.5C65.0077 93.56 65.2177 94.49 65.6377 95.29C66.0577 96.07 66.6177 96.68 67.3177 97.12C68.0377 97.54 68.8377 97.75 69.7177 97.75ZM104.02 82V103H97.0599V87.49H92.2599L92.1999 89.92C92.1199 92.92 91.8799 95.38 91.4799 97.3C91.0799 99.22 90.3799 100.72 89.3799 101.8C88.3799 102.86 86.9499 103.39 85.0899 103.39C84.1499 103.39 83.1499 103.26 82.0899 103L82.4499 97.33C82.7099 97.39 82.9699 97.42 83.2299 97.42C83.9699 97.42 84.5299 97.12 84.9099 96.52C85.3099 95.92 85.5799 95.12 85.7199 94.12C85.8599 93.12 85.9599 91.81 86.0199 90.19L86.2899 82H104.02ZM126.149 82V103H119.189V98.02H117.299L114.089 103H106.679L110.819 97C109.459 96.36 108.409 95.46 107.669 94.3C106.949 93.12 106.589 91.73 106.589 90.13C106.589 88.47 106.979 87.03 107.759 85.81C108.559 84.59 109.689 83.65 111.149 82.99C112.609 82.33 114.329 82 116.309 82H126.149ZM116.429 87.46C114.629 87.46 113.729 88.31 113.729 90.01C113.729 91.79 114.629 92.68 116.429 92.68H119.189V87.46H116.429ZM153.428 97.51V107.11H146.948V103H135.008V107.11H128.528V97.51H129.128C130.348 97.51 131.208 96.74 131.708 95.2C132.208 93.66 132.528 91.39 132.668 88.39L132.908 82H150.668V97.51H153.428ZM138.818 88.99C138.738 91.01 138.578 92.73 138.338 94.15C138.098 95.55 137.728 96.67 137.228 97.51H143.708V87.49H138.878L138.818 88.99ZM170.918 99.34H162.938L161.528 103H154.328L163.508 82H170.468L179.648 103H172.328L170.918 99.34ZM168.968 94.24L166.928 88.96L164.888 94.24H168.968Z" fill="white"/>
</svg>
