<svg width="271" height="191" viewBox="0 0 271 191" fill="none" xmlns="http://www.w3.org/2000/svg">
<path d="M4.35516 1.30506C18.3568 9.80421 23.3219 10.5459 36.3552 10.8051C50.327 11.0829 56.9161 2.30071 70.8552 1.30506C84.7942 0.309418 92.3829 6.05752 106.355 5.80506C118.586 5.58406 125.123 1.43504 137.355 1.30506C150.554 1.16481 157.655 5.83144 170.855 5.80506C183.862 5.77906 190.85 1.11946 203.855 1.30506C226.597 1.62963 251.54 -3.86478 259.855 17.3051C265.289 31.1391 257.164 39.6408 257.5 54.5C257.906 72.4693 263.439 81.4086 265.105 99.3051C267.034 120.015 256.035 131.86 259.855 152.305C262.067 164.145 271.878 169.357 270.355 181.305C267.024 207.449 230.21 169.805 203.855 169.805C177.5 169.805 163.706 180.833 137.355 181.305C111.153 181.775 97.0618 172.305 70.8552 172.305C44.6485 172.305 1.2997 207.333 4.35516 181.305C5.45478 171.938 13.224 168.993 15.3552 159.805C17.3406 151.246 15.7432 146.083 15.3552 137.305C14.5369 118.794 8.71405 108.834 8.85516 90.3051C8.98891 72.7428 16.1763 63.3486 15.3552 45.8051C14.5182 27.9232 -9.64646 -7.19408 4.35516 1.30506Z" fill="#C5161D"/>
<rect x="24" y="26" width="225" height="129" rx="30" fill="white"/>
<path d="M86.7216 38.2H82.0816V50H79.5016V38.2H74.8816V36H86.7216V38.2ZM94.35 39.2C95.39 39.2 96.3167 39.4267 97.13 39.88C97.9567 40.3333 98.6033 40.9733 99.07 41.8C99.5367 42.6267 99.77 43.58 99.77 44.66C99.77 45.74 99.5367 46.7 99.07 47.54C98.6033 48.3667 97.9567 49.0067 97.13 49.46C96.3167 49.9133 95.39 50.14 94.35 50.14C92.91 50.14 91.77 49.66 90.93 48.7V53.88H88.43V39.32H90.81V40.72C91.2233 40.2133 91.73 39.8333 92.33 39.58C92.9433 39.3267 93.6167 39.2 94.35 39.2ZM94.07 48C94.99 48 95.7433 47.6933 96.33 47.08C96.93 46.4667 97.23 45.66 97.23 44.66C97.23 43.66 96.93 42.8533 96.33 42.24C95.7433 41.6267 94.99 41.32 94.07 41.32C93.47 41.32 92.93 41.46 92.45 41.74C91.97 42.0067 91.59 42.3933 91.31 42.9C91.03 43.4067 90.89 43.9933 90.89 44.66C90.89 45.3267 91.03 45.9133 91.31 46.42C91.59 46.9267 91.97 47.32 92.45 47.6C92.93 47.8667 93.47 48 94.07 48ZM102.258 39.32H104.758V46.36L110.658 39.32H112.938V50H110.438V42.96L104.558 50H102.258V39.32ZM116.301 39.32H118.801V43.66H124.181V39.32H126.681V50H124.181V45.78H118.801V50H116.301V39.32ZM134.012 39.2C135.585 39.2 136.785 39.58 137.612 40.34C138.452 41.0867 138.872 42.22 138.872 43.74V50H136.512V48.7C136.205 49.1667 135.765 49.5267 135.192 49.78C134.632 50.02 133.952 50.14 133.152 50.14C132.352 50.14 131.652 50.0067 131.052 49.74C130.452 49.46 129.985 49.08 129.652 48.6C129.332 48.1067 129.172 47.5533 129.172 46.94C129.172 45.98 129.525 45.2133 130.232 44.64C130.952 44.0533 132.078 43.76 133.612 43.76H136.372V43.6C136.372 42.8533 136.145 42.28 135.692 41.88C135.252 41.48 134.592 41.28 133.712 41.28C133.112 41.28 132.518 41.3733 131.932 41.56C131.358 41.7467 130.872 42.0067 130.472 42.34L129.492 40.52C130.052 40.0933 130.725 39.7667 131.512 39.54C132.298 39.3133 133.132 39.2 134.012 39.2ZM133.672 48.32C134.298 48.32 134.852 48.18 135.332 47.9C135.825 47.6067 136.172 47.1933 136.372 46.66V45.42H133.792C132.352 45.42 131.632 45.8933 131.632 46.84C131.632 47.2933 131.812 47.6533 132.172 47.92C132.532 48.1867 133.032 48.32 133.672 48.32ZM153.365 47.88V52.38H151.025V50H142.785V52.38H140.465V47.88H140.965C141.645 47.8533 142.105 47.42 142.345 46.58C142.598 45.7267 142.765 44.5267 142.845 42.98L142.985 39.32H151.785V47.88H153.365ZM145.125 43.16C145.072 44.3867 144.972 45.3867 144.825 46.16C144.678 46.9333 144.412 47.5067 144.025 47.88H149.285V41.44H145.185L145.125 43.16ZM167.318 47.88V52.46H164.978V50H155.598V39.32H158.098V47.88H163.198V39.32H165.698V47.88H167.318ZM178.563 39.32V50H176.323V46.78H173.503L171.323 50H168.643L171.163 46.44C170.39 46.1733 169.797 45.7667 169.383 45.22C168.983 44.66 168.783 43.9733 168.783 43.16C168.783 41.9333 169.217 40.9867 170.083 40.32C170.95 39.6533 172.143 39.32 173.663 39.32H178.563ZM173.743 41.42C172.13 41.42 171.323 42.0267 171.323 43.24C171.323 44.44 172.103 45.04 173.663 45.04H176.323V41.42H173.743ZM190.386 41.44H186.646V50H184.146V41.44H180.386V39.32H190.386V41.44ZM192.2 39.32H194.7V50H192.2V39.32ZM193.46 37.56C193.006 37.56 192.626 37.42 192.32 37.14C192.013 36.8467 191.86 36.4867 191.86 36.06C191.86 35.6333 192.013 35.28 192.32 35C192.626 34.7067 193.006 34.56 193.46 34.56C193.913 34.56 194.293 34.7 194.6 34.98C194.906 35.2467 195.06 35.5867 195.06 36C195.06 36.44 194.906 36.8133 194.6 37.12C194.306 37.4133 193.926 37.56 193.46 37.56ZM67.2456 60H78.1456V62.14H69.8056V65.58H73.9456C75.6256 65.58 76.899 65.9333 77.7656 66.64C78.6456 67.3333 79.0856 68.34 79.0856 69.66C79.0856 71.0467 78.6056 72.12 77.6456 72.88C76.6856 73.6267 75.319 74 73.5456 74H67.2456V60ZM73.4056 72C74.4056 72 75.1656 71.8067 75.6856 71.42C76.2056 71.0333 76.4656 70.4733 76.4656 69.74C76.4656 68.3 75.4456 67.58 73.4056 67.58H69.8056V72H73.4056ZM85.6327 63.2C87.206 63.2 88.406 63.58 89.2327 64.34C90.0727 65.0867 90.4927 66.22 90.4927 67.74V74H88.1327V72.7C87.826 73.1667 87.386 73.5267 86.8127 73.78C86.2527 74.02 85.5727 74.14 84.7727 74.14C83.9727 74.14 83.2727 74.0067 82.6727 73.74C82.0727 73.46 81.606 73.08 81.2727 72.6C80.9527 72.1067 80.7927 71.5533 80.7927 70.94C80.7927 69.98 81.146 69.2133 81.8527 68.64C82.5727 68.0533 83.6993 67.76 85.2327 67.76H87.9927V67.6C87.9927 66.8533 87.766 66.28 87.3127 65.88C86.8727 65.48 86.2127 65.28 85.3327 65.28C84.7327 65.28 84.1393 65.3733 83.5527 65.56C82.9793 65.7467 82.4927 66.0067 82.0927 66.34L81.1127 64.52C81.6727 64.0933 82.346 63.7667 83.1327 63.54C83.9193 63.3133 84.7527 63.2 85.6327 63.2ZM85.2927 72.32C85.9193 72.32 86.4727 72.18 86.9527 71.9C87.446 71.6067 87.7927 71.1933 87.9927 70.66V69.42H85.4127C83.9727 69.42 83.2527 69.8933 83.2527 70.84C83.2527 71.2933 83.4327 71.6533 83.7927 71.92C84.1527 72.1867 84.6527 72.32 85.2927 72.32ZM93.5863 63.32H96.0863V67.66H101.466V63.32H103.966V74H101.466V69.78H96.0863V74H93.5863V63.32ZM118.717 71.88V76.38H116.377V74H108.137V76.38H105.817V71.88H106.317C106.997 71.8533 107.457 71.42 107.697 70.58C107.95 69.7267 108.117 68.5267 108.197 66.98L108.337 63.32H117.137V71.88H118.717ZM110.477 67.16C110.423 68.3867 110.323 69.3867 110.177 70.16C110.03 70.9333 109.763 71.5067 109.377 71.88H114.637V65.44H110.537L110.477 67.16ZM130.95 68.72C130.95 68.8933 130.936 69.14 130.91 69.46H122.53C122.676 70.2467 123.056 70.8733 123.67 71.34C124.296 71.7933 125.07 72.02 125.99 72.02C127.163 72.02 128.13 71.6333 128.89 70.86L130.23 72.4C129.75 72.9733 129.143 73.4067 128.41 73.7C127.676 73.9933 126.85 74.14 125.93 74.14C124.756 74.14 123.723 73.9067 122.83 73.44C121.936 72.9733 121.243 72.3267 120.75 71.5C120.27 70.66 120.03 69.7133 120.03 68.66C120.03 67.62 120.263 66.6867 120.73 65.86C121.21 65.02 121.87 64.3667 122.71 63.9C123.55 63.4333 124.496 63.2 125.55 63.2C126.59 63.2 127.516 63.4333 128.33 63.9C129.156 64.3533 129.796 65 130.25 65.84C130.716 66.6667 130.95 67.6267 130.95 68.72ZM125.55 65.2C124.75 65.2 124.07 65.44 123.51 65.92C122.963 66.3867 122.63 67.0133 122.51 67.8H128.57C128.463 67.0267 128.136 66.4 127.59 65.92C127.043 65.44 126.363 65.2 125.55 65.2ZM139.604 63.2C140.644 63.2 141.571 63.4267 142.384 63.88C143.211 64.3333 143.857 64.9733 144.324 65.8C144.791 66.6267 145.024 67.58 145.024 68.66C145.024 69.74 144.791 70.7 144.324 71.54C143.857 72.3667 143.211 73.0067 142.384 73.46C141.571 73.9133 140.644 74.14 139.604 74.14C138.164 74.14 137.024 73.66 136.184 72.7V77.88H133.684V63.32H136.064V64.72C136.477 64.2133 136.984 63.8333 137.584 63.58C138.197 63.3267 138.871 63.2 139.604 63.2ZM139.324 72C140.244 72 140.997 71.6933 141.584 71.08C142.184 70.4667 142.484 69.66 142.484 68.66C142.484 67.66 142.184 66.8533 141.584 66.24C140.997 65.6267 140.244 65.32 139.324 65.32C138.724 65.32 138.184 65.46 137.704 65.74C137.224 66.0067 136.844 66.3933 136.564 66.9C136.284 67.4067 136.144 67.9933 136.144 68.66C136.144 69.3267 136.284 69.9133 136.564 70.42C136.844 70.9267 137.224 71.32 137.704 71.6C138.184 71.8667 138.724 72 139.324 72ZM147.512 63.32H150.012V74H147.512V63.32ZM148.772 61.56C148.319 61.56 147.939 61.42 147.632 61.14C147.325 60.8467 147.172 60.4867 147.172 60.06C147.172 59.6333 147.325 59.28 147.632 59C147.939 58.7067 148.319 58.56 148.772 58.56C149.225 58.56 149.605 58.7 149.912 58.98C150.219 59.2467 150.372 59.5867 150.372 60C150.372 60.44 150.219 60.8133 149.912 61.12C149.619 61.4133 149.239 61.56 148.772 61.56ZM161.131 68.44C162.451 68.84 163.111 69.6933 163.111 71C163.111 71.96 162.751 72.7 162.031 73.22C161.311 73.74 160.244 74 158.831 74H153.391V63.32H158.611C159.918 63.32 160.938 63.56 161.671 64.04C162.404 64.52 162.771 65.2 162.771 66.08C162.771 66.6267 162.624 67.1 162.331 67.5C162.051 67.9 161.651 68.2133 161.131 68.44ZM155.771 67.78H158.391C159.684 67.78 160.331 67.3333 160.331 66.44C160.331 65.5733 159.684 65.14 158.391 65.14H155.771V67.78ZM158.631 72.18C160.004 72.18 160.691 71.7333 160.691 70.84C160.691 70.3733 160.531 70.0267 160.211 69.8C159.891 69.56 159.391 69.44 158.711 69.44H155.771V72.18H158.631ZM170.634 74.14C169.527 74.14 168.534 73.9067 167.654 73.44C166.774 72.9733 166.087 72.3267 165.594 71.5C165.1 70.66 164.854 69.7133 164.854 68.66C164.854 67.6067 165.1 66.6667 165.594 65.84C166.087 65.0133 166.767 64.3667 167.634 63.9C168.514 63.4333 169.514 63.2 170.634 63.2C171.687 63.2 172.607 63.4133 173.394 63.84C174.194 64.2667 174.794 64.88 175.194 65.68L173.274 66.8C172.967 66.3067 172.58 65.94 172.114 65.7C171.66 65.4467 171.16 65.32 170.614 65.32C169.68 65.32 168.907 65.6267 168.294 66.24C167.68 66.84 167.374 67.6467 167.374 68.66C167.374 69.6733 167.674 70.4867 168.274 71.1C168.887 71.7 169.667 72 170.614 72C171.16 72 171.66 71.88 172.114 71.64C172.58 71.3867 172.967 71.0133 173.274 70.52L175.194 71.64C174.78 72.44 174.174 73.06 173.374 73.5C172.587 73.9267 171.674 74.14 170.634 74.14ZM182.755 66.84C184.115 66.84 185.155 67.1467 185.875 67.76C186.608 68.3733 186.975 69.24 186.975 70.36C186.975 71.5333 186.575 72.44 185.775 73.08C184.975 73.72 183.848 74.0333 182.395 74.02L177.395 74V63.32H179.895V66.82L182.755 66.84ZM182.175 72.18C182.908 72.1933 183.468 72.04 183.855 71.72C184.242 71.4 184.435 70.9333 184.435 70.32C184.435 69.72 184.248 69.28 183.875 69C183.502 68.72 182.935 68.5733 182.175 68.56L179.895 68.54V72.16L182.175 72.18ZM193.612 69.72H191.672V74H189.172V63.32H191.672V67.64H193.672L196.832 63.32H199.512L195.632 68.46L199.772 74H196.832L193.612 69.72ZM201.535 63.32H204.035V74H201.535V63.32ZM202.795 61.56C202.342 61.56 201.962 61.42 201.655 61.14C201.349 60.8467 201.195 60.4867 201.195 60.06C201.195 59.6333 201.349 59.28 201.655 59C201.962 58.7067 202.342 58.56 202.795 58.56C203.249 58.56 203.629 58.7 203.935 58.98C204.242 59.2467 204.395 59.5867 204.395 60C204.395 60.44 204.242 60.8133 203.935 61.12C203.642 61.4133 203.262 61.56 202.795 61.56ZM99.2185 87.32V98H96.7185V93.86C95.6918 94.3533 94.6185 94.6 93.4985 94.6C92.1252 94.6 91.0718 94.2867 90.3385 93.66C89.6052 93.02 89.2385 92.0467 89.2385 90.74V87.32H91.7385V90.58C91.7385 91.26 91.9385 91.7667 92.3385 92.1C92.7385 92.4333 93.3052 92.6 94.0385 92.6C94.9718 92.6 95.8652 92.4 96.7185 92V87.32H99.2185ZM102.58 87.32H105.08V94.36L110.98 87.32H113.26V98H110.76V90.96L104.88 98H102.58V87.32ZM125.083 89.44H121.343V98H118.843V89.44H115.083V87.32H125.083V89.44ZM130.877 87.2C132.45 87.2 133.65 87.58 134.477 88.34C135.317 89.0867 135.737 90.22 135.737 91.74V98H133.377V96.7C133.07 97.1667 132.63 97.5267 132.057 97.78C131.497 98.02 130.817 98.14 130.017 98.14C129.217 98.14 128.517 98.0067 127.917 97.74C127.317 97.46 126.85 97.08 126.517 96.6C126.197 96.1067 126.037 95.5533 126.037 94.94C126.037 93.98 126.39 93.2133 127.097 92.64C127.817 92.0533 128.943 91.76 130.477 91.76H133.237V91.6C133.237 90.8533 133.01 90.28 132.557 89.88C132.117 89.48 131.457 89.28 130.577 89.28C129.977 89.28 129.383 89.3733 128.797 89.56C128.223 89.7467 127.737 90.0067 127.337 90.34L126.357 88.52C126.917 88.0933 127.59 87.7667 128.377 87.54C129.163 87.3133 129.997 87.2 130.877 87.2ZM130.537 96.32C131.163 96.32 131.717 96.18 132.197 95.9C132.69 95.6067 133.037 95.1933 133.237 94.66V93.42H130.657C129.217 93.42 128.497 93.8933 128.497 94.84C128.497 95.2933 128.677 95.6533 129.037 95.92C129.397 96.1867 129.897 96.32 130.537 96.32ZM138.83 87.32H141.33V91.66H146.71V87.32H149.21V98H146.71V93.78H141.33V98H138.83V87.32ZM152.561 87.32H155.061V91.66H160.441V87.32H162.941V98H160.441V93.78H155.061V98H152.561V87.32ZM175.311 87.32V98H173.071V94.78H170.251L168.071 98H165.391L167.911 94.44C167.138 94.1733 166.545 93.7667 166.131 93.22C165.731 92.66 165.531 91.9733 165.531 91.16C165.531 89.9333 165.965 88.9867 166.831 88.32C167.698 87.6533 168.891 87.32 170.411 87.32H175.311ZM170.491 89.42C168.878 89.42 168.071 90.0267 168.071 91.24C168.071 92.44 168.851 93.04 170.411 93.04H173.071V89.42H170.491ZM25.8713 116.66L28.7113 112.78H30.9713L28.1913 116.66L30.9713 120.52H28.7113L25.8713 116.66ZM30.0312 116.66L32.8713 112.78H35.1312L32.3513 116.66L35.1312 120.52H32.8713L30.0312 116.66ZM50.5544 122L50.5344 112.72L45.9344 120.4H44.7744L40.1744 112.84V122H37.7144V108H39.8544L45.3944 117.26L50.8744 108H52.9944L53.0344 122H50.5544ZM60.6522 111.2C62.2255 111.2 63.4255 111.58 64.2522 112.34C65.0922 113.087 65.5122 114.22 65.5122 115.74V122H63.1522V120.7C62.8455 121.167 62.4055 121.527 61.8322 121.78C61.2722 122.02 60.5922 122.14 59.7922 122.14C58.9922 122.14 58.2922 122.007 57.6922 121.74C57.0922 121.46 56.6255 121.08 56.2922 120.6C55.9722 120.107 55.8122 119.553 55.8122 118.94C55.8122 117.98 56.1655 117.213 56.8722 116.64C57.5922 116.053 58.7189 115.76 60.2522 115.76H63.0122V115.6C63.0122 114.853 62.7855 114.28 62.3322 113.88C61.8922 113.48 61.2322 113.28 60.3522 113.28C59.7522 113.28 59.1589 113.373 58.5722 113.56C57.9989 113.747 57.5122 114.007 57.1122 114.34L56.1322 112.52C56.6922 112.093 57.3655 111.767 58.1522 111.54C58.9389 111.313 59.7722 111.2 60.6522 111.2ZM60.3122 120.32C60.9389 120.32 61.4922 120.18 61.9722 119.9C62.4655 119.607 62.8122 119.193 63.0122 118.66V117.42H60.4322C58.9922 117.42 58.2722 117.893 58.2722 118.84C58.2722 119.293 58.4522 119.653 58.8122 119.92C59.1722 120.187 59.6722 120.32 60.3122 120.32ZM78.8458 111.32V122H76.3658V113.44H71.1058V122H68.6058V111.32H78.8458ZM86.1991 111.2C87.7724 111.2 88.9724 111.58 89.7991 112.34C90.6391 113.087 91.0591 114.22 91.0591 115.74V122H88.6991V120.7C88.3924 121.167 87.9524 121.527 87.3791 121.78C86.8191 122.02 86.1391 122.14 85.3391 122.14C84.5391 122.14 83.8391 122.007 83.2391 121.74C82.6391 121.46 82.1724 121.08 81.8391 120.6C81.5191 120.107 81.3591 119.553 81.3591 118.94C81.3591 117.98 81.7124 117.213 82.4191 116.64C83.1391 116.053 84.2657 115.76 85.7991 115.76H88.5591V115.6C88.5591 114.853 88.3324 114.28 87.8791 113.88C87.4391 113.48 86.7791 113.28 85.8991 113.28C85.2991 113.28 84.7057 113.373 84.1191 113.56C83.5457 113.747 83.0591 114.007 82.6591 114.34L81.6791 112.52C82.2391 112.093 82.9124 111.767 83.6991 111.54C84.4857 111.313 85.3191 111.2 86.1991 111.2ZM85.8591 120.32C86.4857 120.32 87.0391 120.18 87.5191 119.9C88.0124 119.607 88.3591 119.193 88.5591 118.66V117.42H85.9791C84.5391 117.42 83.8191 117.893 83.8191 118.84C83.8191 119.293 83.9991 119.653 84.3591 119.92C84.7191 120.187 85.2191 120.32 85.8591 120.32ZM99.68 111.32H102.18V115.66H107.56V111.32H110.06V122H107.56V117.78H102.18V122H99.68V111.32ZM117.39 111.2C118.964 111.2 120.164 111.58 120.99 112.34C121.83 113.087 122.25 114.22 122.25 115.74V122H119.89V120.7C119.584 121.167 119.144 121.527 118.57 121.78C118.01 122.02 117.33 122.14 116.53 122.14C115.73 122.14 115.03 122.007 114.43 121.74C113.83 121.46 113.364 121.08 113.03 120.6C112.71 120.107 112.55 119.553 112.55 118.94C112.55 117.98 112.904 117.213 113.61 116.64C114.33 116.053 115.457 115.76 116.99 115.76H119.75V115.6C119.75 114.853 119.524 114.28 119.07 113.88C118.63 113.48 117.97 113.28 117.09 113.28C116.49 113.28 115.897 113.373 115.31 113.56C114.737 113.747 114.25 114.007 113.85 114.34L112.87 112.52C113.43 112.093 114.104 111.767 114.89 111.54C115.677 111.313 116.51 111.2 117.39 111.2ZM117.05 120.32C117.677 120.32 118.23 120.18 118.71 119.9C119.204 119.607 119.55 119.193 119.75 118.66V117.42H117.17C115.73 117.42 115.01 117.893 115.01 118.84C115.01 119.293 115.19 119.653 115.55 119.92C115.91 120.187 116.41 120.32 117.05 120.32ZM137.064 119.88V124.46H134.724V122H125.344V111.32H127.844V119.88H132.944V111.32H135.444V119.88H137.064ZM139.289 111.32H141.789V122H139.289V111.32ZM140.549 109.56C140.096 109.56 139.716 109.42 139.409 109.14C139.103 108.847 138.949 108.487 138.949 108.06C138.949 107.633 139.103 107.28 139.409 107C139.716 106.707 140.096 106.56 140.549 106.56C141.003 106.56 141.383 106.7 141.689 106.98C141.996 107.247 142.149 107.587 142.149 108C142.149 108.44 141.996 108.813 141.689 109.12C141.396 109.413 141.016 109.56 140.549 109.56ZM149.928 122.14C148.848 122.14 147.875 121.907 147.008 121.44C146.142 120.973 145.462 120.327 144.968 119.5C144.488 118.66 144.248 117.713 144.248 116.66C144.248 115.607 144.488 114.667 144.968 113.84C145.462 113.013 146.142 112.367 147.008 111.9C147.875 111.433 148.848 111.2 149.928 111.2C151.022 111.2 152.002 111.433 152.868 111.9C153.735 112.367 154.408 113.013 154.888 113.84C155.382 114.667 155.628 115.607 155.628 116.66C155.628 117.713 155.382 118.66 154.888 119.5C154.408 120.327 153.735 120.973 152.868 121.44C152.002 121.907 151.022 122.14 149.928 122.14ZM149.928 120C150.848 120 151.608 119.693 152.208 119.08C152.808 118.467 153.108 117.66 153.108 116.66C153.108 115.66 152.808 114.853 152.208 114.24C151.608 113.627 150.848 113.32 149.928 113.32C149.008 113.32 148.248 113.627 147.648 114.24C147.062 114.853 146.768 115.66 146.768 116.66C146.768 117.66 147.062 118.467 147.648 119.08C148.248 119.693 149.008 120 149.928 120ZM158.098 111.32H160.598V115.66H165.978V111.32H168.478V122H165.978V117.78H160.598V122H158.098V111.32ZM175.808 111.2C177.382 111.2 178.582 111.58 179.408 112.34C180.248 113.087 180.668 114.22 180.668 115.74V122H178.308V120.7C178.002 121.167 177.562 121.527 176.988 121.78C176.428 122.02 175.748 122.14 174.948 122.14C174.148 122.14 173.448 122.007 172.848 121.74C172.248 121.46 171.782 121.08 171.448 120.6C171.128 120.107 170.968 119.553 170.968 118.94C170.968 117.98 171.322 117.213 172.028 116.64C172.748 116.053 173.875 115.76 175.408 115.76H178.168V115.6C178.168 114.853 177.942 114.28 177.488 113.88C177.048 113.48 176.388 113.28 175.508 113.28C174.908 113.28 174.315 113.373 173.728 113.56C173.155 113.747 172.668 114.007 172.268 114.34L171.288 112.52C171.848 112.093 172.522 111.767 173.308 111.54C174.095 111.313 174.928 111.2 175.808 111.2ZM175.468 120.32C176.095 120.32 176.648 120.18 177.128 119.9C177.622 119.607 177.968 119.193 178.168 118.66V117.42H175.588C174.148 117.42 173.428 117.893 173.428 118.84C173.428 119.293 173.608 119.653 173.968 119.92C174.328 120.187 174.828 120.32 175.468 120.32ZM193.442 111.32V122H190.942V113.44H186.942L186.842 115.56C186.775 116.973 186.642 118.16 186.442 119.12C186.255 120.067 185.929 120.82 185.462 121.38C185.009 121.927 184.382 122.2 183.582 122.2C183.209 122.2 182.749 122.127 182.202 121.98L182.322 119.88C182.509 119.92 182.669 119.94 182.802 119.94C183.309 119.94 183.689 119.74 183.942 119.34C184.195 118.927 184.355 118.44 184.422 117.88C184.502 117.307 184.569 116.493 184.622 115.44L184.802 111.32H193.442ZM202.169 114.84C203.529 114.84 204.569 115.147 205.289 115.76C206.022 116.373 206.389 117.24 206.389 118.36C206.389 119.533 205.989 120.44 205.189 121.08C204.389 121.72 203.262 122.033 201.809 122.02L196.809 122V111.32H199.309V114.82L202.169 114.84ZM201.589 120.18C202.322 120.193 202.882 120.04 203.269 119.72C203.656 119.4 203.849 118.933 203.849 118.32C203.849 117.72 203.662 117.28 203.289 117C202.916 116.72 202.349 116.573 201.589 116.56L199.309 116.54V120.16L201.589 120.18ZM208.586 111.32H211.086V115.66H216.466V111.32H218.966V122H216.466V117.78H211.086V122H208.586V111.32ZM222.317 111.32H224.817V118.36L230.717 111.32H232.997V122H230.497V114.96L224.617 122H222.317V111.32ZM243.04 122L240.3 118.3L237.54 122H234.78L238.94 116.58L234.96 111.32H237.74L240.36 114.82L242.98 111.32H245.68L241.68 116.54L245.86 122H243.04ZM37.2874 135.32H39.7874V146H37.2874V135.32ZM38.5474 133.56C38.0941 133.56 37.7141 133.42 37.4074 133.14C37.1008 132.847 36.9474 132.487 36.9474 132.06C36.9474 131.633 37.1008 131.28 37.4074 131C37.7141 130.707 38.0941 130.56 38.5474 130.56C39.0008 130.56 39.3808 130.7 39.6874 130.98C39.9941 131.247 40.1474 131.587 40.1474 132C40.1474 132.44 39.9941 132.813 39.6874 133.12C39.3941 133.413 39.0141 133.56 38.5474 133.56ZM43.1663 135.32H45.6663V139.66H51.0463V135.32H53.5463V146H51.0463V141.78H45.6663V146H43.1663V135.32ZM65.3568 137.44H61.6168V146H59.1168V137.44H55.3568V135.32H65.3568V137.44ZM76.7015 140.72C76.7015 140.893 76.6882 141.14 76.6615 141.46H68.2815C68.4282 142.247 68.8082 142.873 69.4215 143.34C70.0482 143.793 70.8215 144.02 71.7415 144.02C72.9148 144.02 73.8815 143.633 74.6415 142.86L75.9815 144.4C75.5015 144.973 74.8948 145.407 74.1615 145.7C73.4282 145.993 72.6015 146.14 71.6815 146.14C70.5082 146.14 69.4748 145.907 68.5815 145.44C67.6882 144.973 66.9948 144.327 66.5015 143.5C66.0215 142.66 65.7815 141.713 65.7815 140.66C65.7815 139.62 66.0148 138.687 66.4815 137.86C66.9615 137.02 67.6215 136.367 68.4615 135.9C69.3015 135.433 70.2482 135.2 71.3015 135.2C72.3415 135.2 73.2682 135.433 74.0815 135.9C74.9082 136.353 75.5482 137 76.0015 137.84C76.4682 138.667 76.7015 139.627 76.7015 140.72ZM71.3015 137.2C70.5015 137.2 69.8215 137.44 69.2615 137.92C68.7148 138.387 68.3815 139.013 68.2615 139.8H74.3215C74.2148 139.027 73.8882 138.4 73.3415 137.92C72.7948 137.44 72.1148 137.2 71.3015 137.2ZM85.3559 135.2C86.3959 135.2 87.3225 135.427 88.1359 135.88C88.9625 136.333 89.6092 136.973 90.0759 137.8C90.5425 138.627 90.7759 139.58 90.7759 140.66C90.7759 141.74 90.5425 142.7 90.0759 143.54C89.6092 144.367 88.9625 145.007 88.1359 145.46C87.3225 145.913 86.3959 146.14 85.3559 146.14C83.9159 146.14 82.7759 145.66 81.9359 144.7V149.88H79.4359V135.32H81.8159V136.72C82.2292 136.213 82.7359 135.833 83.3359 135.58C83.9492 135.327 84.6225 135.2 85.3559 135.2ZM85.0759 144C85.9959 144 86.7492 143.693 87.3359 143.08C87.9359 142.467 88.2359 141.66 88.2359 140.66C88.2359 139.66 87.9359 138.853 87.3359 138.24C86.7492 137.627 85.9959 137.32 85.0759 137.32C84.4759 137.32 83.9359 137.46 83.4559 137.74C82.9759 138.007 82.5959 138.393 82.3159 138.9C82.0359 139.407 81.8959 139.993 81.8959 140.66C81.8959 141.327 82.0359 141.913 82.3159 142.42C82.5959 142.927 82.9759 143.32 83.4559 143.6C83.9359 143.867 84.4759 144 85.0759 144ZM103.264 140.72C103.264 140.893 103.251 141.14 103.224 141.46H94.844C94.9907 142.247 95.3707 142.873 95.984 143.34C96.6107 143.793 97.384 144.02 98.304 144.02C99.4773 144.02 100.444 143.633 101.204 142.86L102.544 144.4C102.064 144.973 101.457 145.407 100.724 145.7C99.9907 145.993 99.164 146.14 98.244 146.14C97.0707 146.14 96.0373 145.907 95.144 145.44C94.2507 144.973 93.5573 144.327 93.064 143.5C92.584 142.66 92.344 141.713 92.344 140.66C92.344 139.62 92.5773 138.687 93.044 137.86C93.524 137.02 94.184 136.367 95.024 135.9C95.864 135.433 96.8107 135.2 97.864 135.2C98.904 135.2 99.8307 135.433 100.644 135.9C101.471 136.353 102.111 137 102.564 137.84C103.031 138.667 103.264 139.627 103.264 140.72ZM97.864 137.2C97.064 137.2 96.384 137.44 95.824 137.92C95.2773 138.387 94.944 139.013 94.824 139.8H100.884C100.777 139.027 100.451 138.4 99.904 137.92C99.3573 137.44 98.6773 137.2 97.864 137.2ZM110.858 146.14C109.752 146.14 108.758 145.907 107.878 145.44C106.998 144.973 106.312 144.327 105.818 143.5C105.325 142.66 105.078 141.713 105.078 140.66C105.078 139.607 105.325 138.667 105.818 137.84C106.312 137.013 106.992 136.367 107.858 135.9C108.738 135.433 109.738 135.2 110.858 135.2C111.912 135.2 112.832 135.413 113.618 135.84C114.418 136.267 115.018 136.88 115.418 137.68L113.498 138.8C113.192 138.307 112.805 137.94 112.338 137.7C111.885 137.447 111.385 137.32 110.838 137.32C109.905 137.32 109.132 137.627 108.518 138.24C107.905 138.84 107.598 139.647 107.598 140.66C107.598 141.673 107.898 142.487 108.498 143.1C109.112 143.7 109.892 144 110.838 144C111.385 144 111.885 143.88 112.338 143.64C112.805 143.387 113.192 143.013 113.498 142.52L115.418 143.64C115.005 144.44 114.398 145.06 113.598 145.5C112.812 145.927 111.898 146.14 110.858 146.14ZM117.619 135.32H120.119V146H117.619V135.32ZM118.879 133.56C118.426 133.56 118.046 133.42 117.739 133.14C117.433 132.847 117.279 132.487 117.279 132.06C117.279 131.633 117.433 131.28 117.739 131C118.046 130.707 118.426 130.56 118.879 130.56C119.333 130.56 119.713 130.7 120.019 130.98C120.326 131.247 120.479 131.587 120.479 132C120.479 132.44 120.326 132.813 120.019 133.12C119.726 133.413 119.346 133.56 118.879 133.56ZM131.238 140.44C132.558 140.84 133.218 141.693 133.218 143C133.218 143.96 132.858 144.7 132.138 145.22C131.418 145.74 130.352 146 128.938 146H123.498V135.32H128.718C130.025 135.32 131.045 135.56 131.778 136.04C132.512 136.52 132.878 137.2 132.878 138.08C132.878 138.627 132.732 139.1 132.438 139.5C132.158 139.9 131.758 140.213 131.238 140.44ZM125.878 139.78H128.498C129.792 139.78 130.438 139.333 130.438 138.44C130.438 137.573 129.792 137.14 128.498 137.14H125.878V139.78ZM128.738 144.18C130.112 144.18 130.798 143.733 130.798 142.84C130.798 142.373 130.638 142.027 130.318 141.8C129.998 141.56 129.498 141.44 128.818 141.44H125.878V144.18H128.738ZM153.709 132L147.629 143.3C147.095 144.3 146.455 145.053 145.709 145.56C144.975 146.053 144.175 146.3 143.309 146.3C142.615 146.3 141.929 146.153 141.249 145.86L141.889 143.82C142.435 143.993 142.889 144.08 143.249 144.08C144.089 144.08 144.782 143.647 145.329 142.78L145.549 142.44L139.969 132H142.749L146.889 140.22L151.149 132H153.709ZM159.266 141.72H157.326V146H154.826V135.32H157.326V139.64H159.326L162.486 135.32H165.166L161.286 140.46L165.426 146H162.486L159.266 141.72ZM173.11 135.2C174.15 135.2 175.076 135.427 175.89 135.88C176.716 136.333 177.363 136.973 177.83 137.8C178.296 138.627 178.53 139.58 178.53 140.66C178.53 141.74 178.296 142.7 177.83 143.54C177.363 144.367 176.716 145.007 175.89 145.46C175.076 145.913 174.15 146.14 173.11 146.14C171.67 146.14 170.53 145.66 169.69 144.7V149.88H167.19V135.32H169.57V136.72C169.983 136.213 170.49 135.833 171.09 135.58C171.703 135.327 172.376 135.2 173.11 135.2ZM172.83 144C173.75 144 174.503 143.693 175.09 143.08C175.69 142.467 175.99 141.66 175.99 140.66C175.99 139.66 175.69 138.853 175.09 138.24C174.503 137.627 173.75 137.32 172.83 137.32C172.23 137.32 171.69 137.46 171.21 137.74C170.73 138.007 170.35 138.393 170.07 138.9C169.79 139.407 169.65 139.993 169.65 140.66C169.65 141.327 169.79 141.913 170.07 142.42C170.35 142.927 170.73 143.32 171.21 143.6C171.69 143.867 172.23 144 172.83 144ZM184.861 135.2C186.435 135.2 187.635 135.58 188.461 136.34C189.301 137.087 189.721 138.22 189.721 139.74V146H187.361V144.7C187.055 145.167 186.615 145.527 186.041 145.78C185.481 146.02 184.801 146.14 184.001 146.14C183.201 146.14 182.501 146.007 181.901 145.74C181.301 145.46 180.835 145.08 180.501 144.6C180.181 144.107 180.021 143.553 180.021 142.94C180.021 141.98 180.375 141.213 181.081 140.64C181.801 140.053 182.928 139.76 184.461 139.76H187.221V139.6C187.221 138.853 186.995 138.28 186.541 137.88C186.101 137.48 185.441 137.28 184.561 137.28C183.961 137.28 183.368 137.373 182.781 137.56C182.208 137.747 181.721 138.007 181.321 138.34L180.341 136.52C180.901 136.093 181.575 135.767 182.361 135.54C183.148 135.313 183.981 135.2 184.861 135.2ZM184.521 144.32C185.148 144.32 185.701 144.18 186.181 143.9C186.675 143.607 187.021 143.193 187.221 142.66V141.42H184.641C183.201 141.42 182.481 141.893 182.481 142.84C182.481 143.293 182.661 143.653 183.021 143.92C183.381 144.187 183.881 144.32 184.521 144.32ZM192.775 135.32H195.275V146H192.775V135.32ZM192.515 133.62C192.181 133.62 191.901 133.513 191.675 133.3C191.461 133.073 191.355 132.787 191.355 132.44C191.355 132.093 191.461 131.807 191.675 131.58C191.901 131.353 192.181 131.24 192.515 131.24C192.835 131.24 193.101 131.353 193.315 131.58C193.541 131.807 193.655 132.093 193.655 132.44C193.655 132.773 193.541 133.053 193.315 133.28C193.101 133.507 192.835 133.62 192.515 133.62ZM195.575 133.62C195.241 133.62 194.961 133.507 194.735 133.28C194.521 133.053 194.415 132.773 194.415 132.44C194.415 132.093 194.521 131.807 194.735 131.58C194.961 131.353 195.241 131.24 195.575 131.24C195.908 131.24 196.181 131.353 196.395 131.58C196.608 131.807 196.715 132.093 196.715 132.44C196.715 132.787 196.608 133.073 196.395 133.3C196.181 133.513 195.908 133.62 195.575 133.62ZM198.596 135.32H201.096V139.66H206.476V135.32H208.976V146H206.476V141.78H201.096V146H198.596V135.32ZM212.326 135.32H214.826V142.36L220.726 135.32H223.006V146H220.506V138.96L214.626 146H212.326V135.32ZM225.289 144.52L228.069 140.66L225.289 136.78H227.549L230.389 140.66L227.549 144.52H225.289ZM229.449 144.52L232.229 140.66L229.449 136.78H231.709L234.549 140.66L231.709 144.52H229.449Z" fill="black"/>
</svg>
